<mxfile host="65bd71144e" modified="2021-04-09T05:59:32.818Z" agent="5.0 (Windows NT 10.0; Win64; x64) AppleWebKit/537.36 (KHTML, like Gecko) Code/1.54.2 Chrome/87.0.4280.141 Electron/11.3.0 Safari/537.36" etag="HMDjhdz-tZehADFjoyQv" version="14.2.4" type="embed">
    <diagram id="36QxGVcuacvClpl7yTXm" name="Page-1">
        <mxGraphModel dx="1838" dy="-357" grid="1" gridSize="10" guides="1" tooltips="1" connect="1" arrows="1" fold="1" page="1" pageScale="1" pageWidth="827" pageHeight="1169" math="0" shadow="0">
            <root>
                <mxCell id="0"/>
                <mxCell id="1" parent="0"/>
                <mxCell id="P_I64xx7jwWxLBhjMPru-1" style="edgeStyle=orthogonalEdgeStyle;rounded=0;orthogonalLoop=1;jettySize=auto;html=1;exitX=1;exitY=0.5;exitDx=0;exitDy=0;entryX=0;entryY=0.5;entryDx=0;entryDy=0;dashed=1;" parent="1" source="P_I64xx7jwWxLBhjMPru-5" target="P_I64xx7jwWxLBhjMPru-13" edge="1">
                    <mxGeometry relative="1" as="geometry">
                        <mxPoint x="809" y="1796.7399999999998" as="targetPoint"/>
                    </mxGeometry>
                </mxCell>
                <mxCell id="P_I64xx7jwWxLBhjMPru-2" style="edgeStyle=orthogonalEdgeStyle;rounded=0;orthogonalLoop=1;jettySize=auto;html=1;exitX=0.5;exitY=0;exitDx=0;exitDy=0;entryX=0;entryY=0.5;entryDx=0;entryDy=0;dashed=1;startArrow=none;startFill=0;endArrow=classic;endFill=1;" parent="1" source="P_I64xx7jwWxLBhjMPru-5" target="P_I64xx7jwWxLBhjMPru-17" edge="1">
                    <mxGeometry relative="1" as="geometry"/>
                </mxCell>
                <mxCell id="P_I64xx7jwWxLBhjMPru-3" value="Publishes&lt;br&gt;validation&lt;br&gt;results" style="edgeLabel;html=1;align=center;verticalAlign=middle;resizable=0;points=[];" parent="P_I64xx7jwWxLBhjMPru-2" vertex="1" connectable="0">
                    <mxGeometry x="-0.4286" y="-1" relative="1" as="geometry">
                        <mxPoint as="offset"/>
                    </mxGeometry>
                </mxCell>
                <mxCell id="P_I64xx7jwWxLBhjMPru-4" style="edgeStyle=orthogonalEdgeStyle;rounded=0;orthogonalLoop=1;jettySize=auto;html=1;exitX=0.5;exitY=1;exitDx=0;exitDy=0;entryX=0.5;entryY=0;entryDx=0;entryDy=0;" parent="1" source="P_I64xx7jwWxLBhjMPru-5" target="P_I64xx7jwWxLBhjMPru-22" edge="1">
                    <mxGeometry relative="1" as="geometry"/>
                </mxCell>
                <mxCell id="P_I64xx7jwWxLBhjMPru-5" value="MarketDataSyncIngestor&#10;(HttpTrigger)" style="shape=image;verticalLabelPosition=bottom;labelBackgroundColor=#ffffff;verticalAlign=top;aspect=fixed;imageAspect=0;image=data:image/svg+xml,PHN2ZyB4bWxucz0iaHR0cDovL3d3dy53My5vcmcvMjAwMC9zdmciIGlkPSJhMmM4ODMwNi1mYTAzLTRlNWItYjE5Mi00MDFmMGI3NzgwOGIiIHdpZHRoPSIxOCIgaGVpZ2h0PSIxOCIgdmlld0JveD0iMCAwIDE4IDE4Ij4mI3hhOyAgPGRlZnM+JiN4YTsgICAgPGxpbmVhckdyYWRpZW50IGlkPSJiNDAzYWNhNy1mMzg3LTQ0MzQtOTZiNC1hZTE1N2VkYzgzNWYiIHgxPSItMTc1Ljk5MyIgeTE9Ii0zNDMuNzIzIiB4Mj0iLTE3NS45OTMiIHkyPSItMzU5LjIzMiIgZ3JhZGllbnRUcmFuc2Zvcm09InRyYW5zbGF0ZSgyMTIuNTczIDM3MC41NDgpIHNjYWxlKDEuMTU2IDEuMDI5KSIgZ3JhZGllbnRVbml0cz0idXNlclNwYWNlT25Vc2UiPiYjeGE7ICAgICAgPHN0b3Agb2Zmc2V0PSIwIiBzdG9wLWNvbG9yPSIjZmVhMTFiIi8+JiN4YTsgICAgICA8c3RvcCBvZmZzZXQ9IjAuMjg0IiBzdG9wLWNvbG9yPSIjZmVhNTFhIi8+JiN4YTsgICAgICA8c3RvcCBvZmZzZXQ9IjAuNTQ3IiBzdG9wLWNvbG9yPSIjZmViMDE4Ii8+JiN4YTsgICAgICA8c3RvcCBvZmZzZXQ9IjAuOCIgc3RvcC1jb2xvcj0iI2ZmYzMxNCIvPiYjeGE7ICAgICAgPHN0b3Agb2Zmc2V0PSIxIiBzdG9wLWNvbG9yPSIjZmZkNzBmIi8+JiN4YTsgICAgPC9saW5lYXJHcmFkaWVudD4mI3hhOyAgPC9kZWZzPiYjeGE7ICA8dGl0bGU+SWNvbi1jb21wdXRlLTI5PC90aXRsZT4mI3hhOyAgPGc+JiN4YTsgICAgPHBhdGggZD0iTTIuMzcsNy40NzVIMy4yYS4yNjcuMjY3LDAsMCwxLC4yNjcuMjY3djYuMTQ4YS41MzMuNTMzLDAsMCwxLS41MzMuNTMzSDIuMWEwLDAsMCwwLDEsMCwwVjcuNzQxYS4yNjcuMjY3LDAsMCwxLC4yNjctLjI2N1oiIHRyYW5zZm9ybT0idHJhbnNsYXRlKDEyLjUwNyAxNi43MDUpIHJvdGF0ZSgxMzQuOTE5KSIgZmlsbD0iIzUwZTZmZiIvPiYjeGE7ICAgIDxwYXRoIGQ9Ik0yLjMyNSwzLjZoLjgzM2EuMjY3LjI2NywwLDAsMSwuMjY3LjI2N3Y2LjU4M2EwLDAsMCwwLDEsMCwwSDIuNTkxYS41MzMuNTMzLDAsMCwxLS41MzMtLjUzM1YzLjg2NUEuMjY3LjI2NywwLDAsMSwyLjMyNSwzLjZaIiB0cmFuc2Zvcm09InRyYW5zbGF0ZSg1Ljc1OSAwLjExNCkgcm90YXRlKDQ0LjkxOSkiIGZpbGw9IiMxNDkwZGYiLz4mI3hhOyAgPC9nPiYjeGE7ICA8Zz4mI3hhOyAgICA8cGF0aCBkPSJNMTQuNTMsNy40NzVoLjgzM2EuNTMzLjUzMywwLDAsMSwuNTMzLjUzM3Y2LjE0OGEuMjY3LjI2NywwLDAsMS0uMjY3LjI2N0gxNC44YS4yNjcuMjY3LDAsMCwxLS4yNjctLjI2N1Y3LjQ3NWEwLDAsMCwwLDEsMCwwWiIgdHJhbnNmb3JtPSJ0cmFuc2xhdGUoMTIuMjIzIC03LjU1NSkgcm90YXRlKDQ1LjA4MSkiIGZpbGw9IiM1MGU2ZmYiLz4mI3hhOyAgICA8cGF0aCBkPSJNMTUuMTA4LDMuNmguODMzYTAsMCwwLDAsMSwwLDB2Ni41ODNhLjI2Ny4yNjcsMCwwLDEtLjI2Ny4yNjdoLS44MzNhLjI2Ny4yNjcsMCwwLDEtLjI2Ny0uMjY3VjQuMTMxYS41MzMuNTMzLDAsMCwxLC41MzMtLjUzM1oiIHRyYW5zZm9ybT0idHJhbnNsYXRlKDMxLjAyMiAxLjIyMikgcm90YXRlKDEzNS4wODEpIiBmaWxsPSIjMTQ5MGRmIi8+JiN4YTsgIDwvZz4mI3hhOyAgPHBhdGggZD0iTTguNDU5LDkuOUg0Ljg3YS4xOTMuMTkzLDAsMCwxLS4yLS4xODEuMTY2LjE2NiwwLDAsMSwuMDE4LS4wNzVMOC45OTEsMS4xM2EuMjA2LjIwNiwwLDAsMSwuMTg2LS4xMDZoNC4yNDVhLjE5My4xOTMsMCwwLDEsLjIuMTgxLjE2NS4xNjUsMCwwLDEtLjAzNS4xTDguNTM0LDcuOTY2aDQuOTI4YS4xOTMuMTkzLDAsMCwxLC4yLjE4MS4xNzYuMTc2LDAsMCwxLS4wNTIuMTIyTDUuNDIxLDE2Ljc4OGMtLjA3Ny4wNDYtLjYyNC41LS4zNTYtLjE4OWgwWiIgZmlsbD0idXJsKCNiNDAzYWNhNy1mMzg3LTQ0MzQtOTZiNC1hZTE1N2VkYzgzNWYpIi8+JiN4YTs8bWV0YWRhdGE+JiN4YTsgICA8cmRmOlJERiB4bWxuczpyZGY9Imh0dHA6Ly93d3cudzMub3JnLzE5OTkvMDIvMjItcmRmLXN5bnRheC1ucyMiPiYjeGE7ICAgICAgPHJkZjpsaT5wdWJsaWM6dHJ1ZTwvcmRmOmxpPiYjeGE7ICAgICAgPHJkZjpsaT5zZGs6TXNQb3J0YWxGeC5CYXNlLkltYWdlcy5Qb2x5Y2hyb21hdGljLkZ1bmN0aW9ucygpPC9yZGY6bGk+JiN4YTsgICAgICA8cmRmOmxpPmNhdGVnb3J5OiBDb21wdXRlLCBJb1Q8L3JkZjpsaT4mI3hhOyAgIDwvcmRmOlJERj4mI3hhOzwvbWV0YWRhdGE+JiN4YTs8L3N2Zz4=;" parent="1" vertex="1">
                    <mxGeometry x="505" y="1771.7399999999998" width="50" height="50" as="geometry"/>
                </mxCell>
                <mxCell id="P_I64xx7jwWxLBhjMPru-6" style="edgeStyle=orthogonalEdgeStyle;rounded=0;orthogonalLoop=1;jettySize=auto;html=1;dashed=1;exitX=1;exitY=0.25;exitDx=0;exitDy=0;" parent="1" source="2" target="P_I64xx7jwWxLBhjMPru-14" edge="1">
                    <mxGeometry relative="1" as="geometry">
                        <mxPoint x="1313" y="1705" as="targetPoint"/>
                        <mxPoint x="1120" y="1640" as="sourcePoint"/>
                    </mxGeometry>
                </mxCell>
                <mxCell id="P_I64xx7jwWxLBhjMPru-7" style="edgeStyle=orthogonalEdgeStyle;rounded=0;orthogonalLoop=1;jettySize=auto;html=1;entryX=1;entryY=0.5;entryDx=0;entryDy=0;dashed=1;startArrow=none;startFill=0;endArrow=classic;endFill=1;exitX=0.5;exitY=0;exitDx=0;exitDy=0;" parent="1" source="2" target="P_I64xx7jwWxLBhjMPru-17" edge="1">
                    <mxGeometry relative="1" as="geometry">
                        <mxPoint x="1050" y="1590" as="sourcePoint"/>
                    </mxGeometry>
                </mxCell>
                <mxCell id="P_I64xx7jwWxLBhjMPru-8" value="Publishes&lt;br&gt;validation&lt;br&gt;results" style="edgeLabel;html=1;align=center;verticalAlign=middle;resizable=0;points=[];" parent="P_I64xx7jwWxLBhjMPru-7" vertex="1" connectable="0">
                    <mxGeometry x="0.1154" y="1" relative="1" as="geometry">
                        <mxPoint as="offset"/>
                    </mxGeometry>
                </mxCell>
                <mxCell id="P_I64xx7jwWxLBhjMPru-9" style="rounded=0;orthogonalLoop=1;jettySize=auto;html=1;entryX=0.41;entryY=0;entryDx=0;entryDy=0;entryPerimeter=0;edgeStyle=orthogonalEdgeStyle;exitX=0.5;exitY=1;exitDx=0;exitDy=0;" parent="1" source="2" target="P_I64xx7jwWxLBhjMPru-23" edge="1">
                    <mxGeometry relative="1" as="geometry">
                        <mxPoint x="1057.04" y="2004" as="targetPoint"/>
                        <mxPoint x="1100" y="1950" as="sourcePoint"/>
                    </mxGeometry>
                </mxCell>
                <mxCell id="P_I64xx7jwWxLBhjMPru-10" style="edgeStyle=orthogonalEdgeStyle;rounded=0;orthogonalLoop=1;jettySize=auto;html=1;exitX=1;exitY=0.5;exitDx=0;exitDy=0;entryX=0;entryY=0.5;entryDx=0;entryDy=0;" parent="1" source="P_I64xx7jwWxLBhjMPru-11" target="P_I64xx7jwWxLBhjMPru-21" edge="1">
                    <mxGeometry relative="1" as="geometry">
                        <mxPoint x="1180" y="1796" as="targetPoint"/>
                    </mxGeometry>
                </mxCell>
                <mxCell id="P_I64xx7jwWxLBhjMPru-13" value="MarketData Queue&#10;(Service Bus Topics)" style="shape=image;verticalLabelPosition=bottom;labelBackgroundColor=#ffffff;verticalAlign=top;aspect=fixed;imageAspect=0;image=data:image/png,iVBORw0KGgoAAAANSUhEUgAAATsAAAE7CAYAAACi3CbHAAAUbklEQVR4Xu3dQXCURd7H8e5nSBA9+O5pl5PEg5NYVCl7UfcicFl4nYBs1ZqMBxAvyF5cvPiyF/Gyq5cXuazuZVEOTiJVy5KML3oBPQEXXassk9mDwRNyYq16RZJhnt7uIWyFfymaME93P09/P1Vjkv8zVQgkP7r/Tz/dWgXWnJnfbWr6MW3U4/bLTfY1It6CQTPqstJqfvnz6/a/F5UxU61do53b3whUh5YFX5qznQn7q/9JEW7xMOrMDd3df7Kx+Yq8BJRdkLBrtjv/az8cknWEZ5S5ampmy/TOsa/kNaDMvIfd5MzcAZ1lb8k6orIwdO/w2IntI4vyAlBWmSwUaeLM3ANK66OyjuiMLH27+IIsAmXmNeyyG9lzWusNso74aKVfljWgzLyGnf0J2idLiJRWG59tdx6RZaCsvIVdc2a+rrjzWiq5MVtlDSgrb2GXa/MLWUPcdJYxskNleAs7Oy3aJEsA4Iu3sMtyzcgOQDDewk5pfY8sAYAv/sIOAAIi7AAkgbADkATCDkASCDsASSDsACSBsAOQBMIOQBIIOwBJIOwAJIGwA5AEwg5AEgg7AEkg7AAkgbADkATCDkASCDsASSDsACSBsAOQBMIOQBK0LBSlOdt5xf5qR2TdF6PMVW30MVmPllZP2v9uk2WvtD7eeuqh52UZKKNkws5aaDXqD8pirCL48yLsUClMYwEkgbADkATCDgPTnJnfPTk7/+Izp794TF4DQiPsMDhaP6q1fqNWq12woXetOdv5P9d7nJidczdbgKAIOxTCht4GpdVOd5Ml09lHzXbH2NdZN/KbODP3gHw/UDTCDj5tcyO/rJddmmx3vnCjvmfbnUfkm4AiEHYIQis15kZ9Rql/2BHfl/b1Z3p9KBJhhxiM2NfBfq/PjvgmZ+YO7D21cL98E3A3CDtExY34dJa9tbRu8XLz/X/+ldEeBoWwQ5T6NziM2X/baO/swnr5PuCnIuwQvVujve63Swvubi6hh7Ug7FAeWm10d3MJPawFYYfyIfSwBoQdymtF6E205/bJy8BKhB3Kz4ZeprK33eNpPJ2BH0LYoTq02qlv6LnmzPzL8hJA2KFS+ktWMv2aW67CGj2sRNihktxylf4avfc7f+QGBhzCDpWmjTq89O3ieTu1rctrSAthh8qzU9stJlPnm7OdCXkN6SDskASt9M/sf6bc7ipMa9NE2CE1B5nWpomwQ3JuTWsn2/O/ltdQXYQdkuSmtfb1AU9epIOwQ9L6T16wCDkJhB3gFiG/3/mjLKNaCDtA3VyP53ZGlnVUB2EH3GLMfreZAEtTqomwA1bSaufStaWWLKP8CDtA0ErtYUpbPYQd8H1uTmlfkWWUF2EH/BCtjrht32UZ5UTYAXfgtn1n4XE1EHbAj9BGv8mjZeVH2GFgjMm/lrUq6O9+rFSL8y3KjbDDwEztGvtLXss3Ga3+ZL9ckNfLzD1Lm/WyFmvwyouww0BN7xz7auqp+h9ajfqDRpkddlh03BjznXxfST3RvbbkghwlRNihMFON0Q9bTz30fE/fGLFfHq1I6B1qzszvlkXEj7BD4U42Nl+xI72XqhJ6JlPH6d+VD2EHb6oSevTvyomwg3e3Qk8btUUZdUZeLwn6dyVD2CGY1q7RTmu8/t+5yp8zylyV10vg0MTs3JOyiDhpWShK/zlDrY7IukcL7g6hLMaq3xO6oTbJuk+Z0V+7QJL1Iuw9tXB/d7h71D2TKq/FzCg1N3zv8JYT20cW5TXEhbBDVNzZrnaUd3x5IW85GHXEjlBflWXEhWksomJDYzrT+glVokXJNpxf5mjG+BF2iM67jfpnQ93hLfbTc/JajPqj0Ey/KeuIC2GHKJ3YM/JNq1Hfbj8tS4hsY3eUuBF2iJoNvN+5npisx0grffS37c9/LuuIA2GH6PWb/yUIPLfYeJ0a4gzaSBF2KIWyBJ4x5gVGd3Ei7FAaZQg8d7PCju44uyJChB1KxQWeUSb2ow4PPtvuPCKLCIuwQ+kM37vePWVxXtZjkivF6C4yhB1Kxz2aldfypp3SXpbXYuHOnmV0FxfCDqXkdkTu5b09MW8TxeguLjwbexc++PyXRtawNjs2f7Km70V3rqs77lDWY2F/U4+6J0JkHf4xskOpTY2PHlMRP1bG6C4ehB1KL6/l+6Odzhqzg3V3cSDsUHquf2dD5ZCsx6C/7i5f95yswz/CDpXgzqxVsU5ntX5RluAfYYfKiHY6q9VGjl8Mj7BDZbjprJ02viXrMTCZZvunwAg7VMpQd9g9PxvdYmO3yJizZsMi7FApbtNPo8zrsh4DnWcHZA3+EHaonOH71r/lTv2S9dB0rp7jYO1wCDtUjnt2VufmsKwHp9XGpWuLW2UZfhB2qKTWrtHTxphPZT00rbMJWYMfhB2q7B1ZCM2Y/GmmsmEQdqgs17uL7c6sO6eCqWwYhB0qy/XuTKbelvXQbOCxwDgAwg6V1jPdY9E9VWHU07KE4hF2qLSTjc1XdJZNyXpQWm2cmJ17UpZRLMIOlZfnvehuVGQ6YyrrGWGHypseH/vYfliQ9cCYynpG2CEJRqu4prJKjTxz+ovHZBHFIeyQBN0z0U1la1lth6yhOIQdktDaNdpRsZ01qxU3KTwi7JAMk+dRje6MMY/zNIU/hB2SYYbUB7IWkjufYvHb64/LOopB2CEZ/YN5Irsrm6lsqyihIIQd0qL1R7IUktHqEVlDMQg7JCU3PbfmLiJmq6ygGIQd0lJTH8lSSG4XlGfbHUZ3HmhZKEpztvOK/dWOyLpHC61G/UFZRHqa7c6X9sOIrIdijPn91PjoMVnHYDGyQ3oi69vZ/x/W23lA2CE59O3SRNghObnqxbXeTumf/bb9+c9lHYNFz+4ufPD5L42sYW12bP7E2/eiMzk7/4nWeoush2KU2THVGP1Q1jE4jOyQJB1b386oUVnCYBF2SFNuourb2fCtyxoGi7BDkoZ66z+StZDcpgCyhsEi7JCkE3tGvjFKzcl6QExjC0bYIVnaqEuyForbAaU5M89UtkCEHdKl1bwsBcborkCEHZJl8tztXhwTwq5AhB3SlelLshSSydjuqUiEHZJlaiauaSxr7QpF2CFZbudiY8x3sh6MVptkCYND2CF10Yzu3DOye08t3C/rGAzCDmnTcfXturXFX8gaBoOwQ9oiW35iMqayRSHskDRjIlt+kptNsoTBIOyQNNOL646s1hnT2IIQdkjaPfmGqMJOZfoBWcJgEHZI2s0NAcxVWQ/GMI0tCmGH5GmlYxrdbZIFDAZhBxj1L1kKxRhDz64ghB2Q6a9lKRS31ROH7xTD2yEnHLiDO/F94M5KzXbnz/bDQVkP6Lx9XZdFyWh1Qedq8faauWBHh9fX33fPhRPbR267ljpv32CEHe4kaNiF/94s0nmjzCU7Vb+Y5/mF93Y/fFG+IRVMYwE7EpKlCnlCK9200+M3arXaBTuKNfZ1dnJ2/sWJM3NJLXMh7JC8PDPR9Ow82ebCL+tll9z5uakEH2GH5GW5juZurG/uoPD/BF+787fJ9vyv5XuqgrBD8nJtkg27lbRSe+yU9wMbel9Mzswd2Ht2Yb18T5kRdkheTWeE3Qo29MZ0lr3V/XZpYaI9t09eLyvCDsnr1XLC7vtotTFT2duur9ecmd8tL5eNt9v9EdzeH/jSE1SD2x24O7RE4P0Io0xruLv+oHueWF4rA0Z2SF5Zf3h9c0tY7D8Knz5z+ovH5LUyIOwA1R+1xLPzSdxG+uv1ZuZflhdiR9gBqj9qYRq7Gpl+zS1OLtNzvPTs7gKPiw1OyMfFHNeEd2vOZB13tjwibk41Rj+U12LDyA5Q/cW1jOzWwB3/6Nbm9QczkSPsANXfR+6/ZA2rYGdtsQceYQeo/siOsLtbNvBiXoRM2AGOUffIElbPLUKOdQEyYQc4Wm2UJayN0aoV44YChB2AgXJby9sPrWfbnUfktZAIOyQvhb3cfHN3aXNlzsX0Z0vYASiEC7ysl52LZasowg7JM0scX1igke61paOyGAJhh+TpTHMntlgHY7hhQdgheZlhjV3RtNHH3VZasu4TYYfk5RlPTxROq43doaWgT1gQdkiezllQ7IMx5oWQu6QQdkie1hk3KDxw6+9qal2wmxWEHQBv3G7HoRYbE3ZApqNZ+JqCXJkguxwTdgD8MurpEL07wg7IWVTsU793Z9ZNynrRCDtAczfWO60PyFLRCDskj12K/dNKjU3Mzj0p60Ui7JA8dikOI9OZ100+CTsgzl2Kz9vXuZ/4KiWj1A5ZK5K34+s4ShF3EvIoxWa7c+vv0QXM9ZXXbmP61y7K8krG5F8breZlfaVc9+ZPNjZfkfW7dWtamKlsq/1Zcw/eP3HbGyKU1/JN0zvHvpL1Inj7BiPscCchw66q3D5y3f9f3GHniy/aL7fJ6zEwef7C1K6xv8h6EZjGAhV1YvvIYmvX6Gn7j/x2+y/Jo/Zf5lPyPcFlmbetnwg7IAHvNuqfTTXqv3EjKWPMd/J6QKOyUBTCDkiImzLmeb7NKHNVXgvBLUHxtW07YQck5r3dD1+0o7s9sh7KjWtLXkZ33prCVbxBAZRZBD+TNxk12RqvT8vyoDGyAxI1dN/wa3aE96msB+BlZEfYAYlyd2uVMV6WfcSAsAMS1st6f5c177TychAPPbuITbbn39VKB9l+yCjz+lRj9ENZR/U0252zKuSiY62Pt5566HlZHjRGdhGzQfe4uvlN6P1lwy5IyCIAoz6WpSoi7IDEued5Za2KCDsgcXYGQdgBqL4eIzsAKdDDjOwAoDIIOwBJIOwAJIGwA5AEwg5AEgg7AEkg7AAkgbADkATCDkASCDsASSDsACSBsAOQBMIOQBIIOwBJ0LJQlNBnUBhjvtNaX5B1j/7RatRfksU7abY7X9oPI7LuQ67y56YbY+/IOqpn4szcA1kvuyTr3nAGxWDZoNugvuesBY+vRxWAYJIJOwBpI+wAJEHLQlFC9+wicK7VqG+XxTspW89uYnbuyUxlW0UZsbt5SPUhWfbGU8+OsPOn8mHH3zHWxFPYMY0FkATCDkASCDsASSDsACSBsAOQBMIOQBIIOwBJIOwAJIGwA5AEwg5AEgg7AEkg7AAkgbADkATCDkASCDsASSDsACTBX9gZc12WAMAXf2Gn1N/dcYayCAA+eAu71q7Rjv1wWNYBwAdvYedMjY8ec/vNyzoAFM1r2Dn9gzUIPACeeQ87Z/kkoTdlHUCCcvOVLBUhSNg5rUb9d8pw7B6QMqPU3NCN4TdkvQjBws5pjddfdeeTcpcWSI9R5qrOzZ4Te0a+kdeKEDTsHHcQs/1N77S/88vyGoBqckGXKb1teZWGF8HDzpkeH/v4hu5usZ+el9cAVMutoHu3Uf9MXitSFGHnnGxsvtJq1H+lcvM/TGuBagoVdI6WhRjsPbVw/+K664/KepnVdPav1f4FN9udL+2HEVn3wfVSXYtB1u+kOdt5xX5HHZF1wHE3I0wt3zm9c8zL3VcpyrDDTYQdKuTcUHfY282I7xPNNBZAZR1tNerbQwadQ9gBKIZRl40yO2zQvSQvhcA0NmJlm8ZOtOf2ZSrbJ+tIjzHm9PCN9W+HHs2tRNhFrGxhB8SMaSyAJBB2AJJA2AFIAmEHIAmEHYAkEHYAkkDYAUgC6+xWqTnbmbB/agdkvQjGmMe11htk3Qf30Lb95vha1ouUq/wd1vahKITdKu09u7C+e23pnP30CXkNa+fCdfje4S0nto8symvAIDCNXSX3w5jX8qbbl0tew9q4/Qv723MTdCgQYbcGbj8unav9so61Mdoc9Lk9N9JE2K2R/eE8bT8clXWsktbH6dPBB8LuLgzdO3xYcW7GmvWP0dswdFDWgSIQdneB/t3a0aeDb4TdXaJ/tzb06eAbYTcA9O9WiT4dAiDsBoT+3U9Dnw6hEHYDQv/ux7k+Xd7r7adPhxAIuwHq9++MZtTyww6/t/vhi7II+MDjYgVovv/Pv9phDDctVrDT11NTjfpvZB3whZFdAVxPyvWmZD1hC8PdYcIfQRF2BXA9KbeGzPWo5LXUuD+DXq/XjOlIPaSJsCuIW0Pm1pLJeoLo0yEK9OwKlnL/jj4dYsLIrmAJ9+/o0yEqhF3BUuzf0adDjAg7D1Lr32mlX6dPh9jQs/Mokf7duVajvl0WgdAY2XlU+f6dUZdvqG5TloEYEHYeVb1/l6u8ebKx+YqsAzEg7Dxb3sPN7ZBSLUYdmR4f+1iWgVjQswtkst35m/3D3yPrJUWfDtFjZBfI8hq0BVkvHfp0KAnCLhC3Bs2tRSt7/44+HcqCsAtoeS1aeft39OlQIvTsIlDS/t35VqP+K1kEYsXILgJl69+5refdFvSyDsSMsItA2fp37uhItwW9rAMxI+wiUaL+3dHloyOBUiHsIjI1PnrM7QEn6xE5v3xkJFA6hF1kYu3f3erTcQwiyoqwi4zr3+Umj25nFPp0KDvCLkL9tWtGHZH1gOjTofQIu0i1xuuv2g/nZD0A+nSoBMIuYv1nTo26LOu+0KdDlRB2EXPPnLpnT2XdFxt2h+jToSoIu8gF699pfXy6MfaOLANlRdiVgO/+nds63m0hL+tAmRF2JeGrf+ceWXNbx9OnQ9UQdiXhq3/njnxc3joeqBTCrkQK79/Rp0OFEXYlU1T/jj4dqo6wK6G8lu93a+Bkfa3o0yEFhF0JubVv7llVWV8r+nRIAWFXUsvPqh6V9dWyI8QWfTqkgLArseVnVs/L+iosDHfX06dDEgi7EnM9Nvfs6lr6d65P57aCd1tKyWtAFRF2JXcX/bvDy1vBA0kg7Cpgtf07t/W72wJe1oEqI+wqYhX9u4Xlrd+BpBB2FfFT+nf06ZAywq5CfkL/jj4dkkXYVcwP9e/o0yF1hF0Fuf6de9b1PwWjLtOnQ+oIuwpy/Tv3rKvr0bmv3dZQ9OmQOi0LqI6J9ty+zGSblndKAZJG2AFIAmEHIAmEHYAk/BtbSDaT5sneCAAAAABJRU5ErkJggg==;" parent="1" vertex="1">
                    <mxGeometry x="760" y="1771.74" width="49" height="50" as="geometry"/>
                </mxCell>
                <mxCell id="P_I64xx7jwWxLBhjMPru-14" value="MarketData DB&#10;(SQL Database)" style="shape=image;verticalLabelPosition=bottom;labelBackgroundColor=#ffffff;verticalAlign=top;aspect=fixed;imageAspect=0;image=data:image/png,iVBORw0KGgoAAAANSUhEUgAAAwUAAAMrCAMAAAAvHc4NAAABiVBMVEX///8CgLADq+sCgLACgLADq+sDq+sCgLACgLACgLACgLACgLACgLACgLACgLADq+sDq+sCgLAAqusAqusDq+sBls8CgLADq+sCgLAAqusCgLADq+sDq+sDq+sDq+sDq+sAqusDq+sDq+sAqusAqusAqusAqusAqusAqusDq+sAqusAqusAqusAqusBn9wDls8DquoCh7oBl9EDpOIAo+EDnNYClMsCkccBjMACiLwAqusApuUDnNcDqukDqOcDp+YDpuQDpeICg7QAqOgAod8AqOgAqusAqOgAp+YBl9EBjMEChrkDqukDo98Dls8DqegDpeMDod4Dls8CjMAChLYDo+ADmNECg7QDpuQDntkCjcMCk8oDq+sQr+zA6voApeTw+v7///8BndkBmtWg3/gBksoCgLAAqOhAv/ADls4DoNwBkMaQ2vYwuu8Ci78BjcNwz/Sw5fkChbcBmNEBi79QxfHQ7/sgte6A1fUBlc4AouBgyvMCiLsDqOjg9f0Dm9UAoNwCkMYAquvrMbSHAAAAVXRSTlMAQECAwIDAEPBgoNAw4CAQ8FAQwCDwcOCQQLCgMHCwYGCQ0IAwoNDgIFCQULBw1h/TW1f2/Pn39ujz8Ojz5t/l7fPx+z398dniytzW9+/42bi6urKm8tdtGAAAJw5JREFUeAHs3Qdr80oWxvEjbHBcYrCGDdFLE8gqqNztTUvd8hlMN8RkDBgI2KLYGDDnk6+dvK2kOMpoRrKeH73c7r/PmZGSS0fgvIEuBoDtHGXeUSpO+H1CcRJ7R41qA/C5Tz5/6LkCuRDC87wESUDdRI7jebEQAeuUC+GfhoRNBgG+9j3PFwEbF4rUyzSOBwDHOW08IdfQYw0RVQnw6ReCGyAQXoZFCVSyHddLRc6NI3zvo4MBwEm8VLAB5lsAsJ0sFiFfjlzE7pQAzuO4scj5MgV+5tArAKLES0O+eMcUpgTwi6nZAaCfiJOIvgJMgFhwK4Up9iMC2/FEzu0mPMcmaKnI9QOGR0GcoITWmWZpzoASUAD8IvAcgksXoYA3pbhGvWC264cM5wh91ya4OFMvYHiPACPh0oZAzlBmJCQElyDKBJcHqRtRo8E0Dhg+KsgQQoMTCFkNCOMpARJoEIQASAAhQJQFDC0OAWxXMFQr9CKqL3D0PBeAILOpjiDKQgZtUpfqBpKUQa/cd6g+wMYYaPkRAaY+gzFpQmCcGzC0eSCA7YUM5pk7IUBUm4tRCFwCAxyfawRC7c8QwBFcM5B7OjuARHANQe5HBHq4IdcVoAM0ABo6AKdpDSwPJ5vto4fii5l8UfHF/fbR4WSODqA5Z+L54XDYbrf3xZFUbP+UxqmLJdcazsktbGB3uNtuV0WxlhqtH5M4jon23BdB5HPdnDadVbGXxp16WBx29eogI8XAjmv11b/ZFoWsn1nxsF3UZjiELqkEWV6TpX9zX6xl7e2LYwxLNk44dEFwMTQ/bFeFbJZZcb8x3UIaEagQCTbq9P0vm2tWbBc7Nie26aPA9owGsNrLi1CsNgcck5sqCdmM3eIUwGUp7hdzNiB0qHGwDB22xUxWr/udzs8+db+6VrwgHXA8aBIvZ92Wd/fKR8BV9+i2czSxTnpUjnUy6RwNjn/C4YeGwt0ST5MbYRqwZuoKGD5+7PuWZVGVxpZlPc2NK/lee80lhAnBu3ms1W5bKFhxbjs3ljUmIyyr3+m8b3/aa92ORET1hUGwXKxmsrzr7qDTt0ZUFz1r0rk9d2OaPWzmrItH9YRBsNvuy+89nRtrTHXVs/qdwTm70vr+gNui2rGFvpPAutx597aj7uOvIYY396TZarGs00M0cHJNCZTZg7qDG6tHDfR2Cw9aQgin9DbwaprAVbczGVGz9aybwfC1EDbLGpwOwE5rmMApgDFdjFMKJicCLovM3w3t3ncWGN72R3SBrM6nK1Mh5A4ZhCPBcrOX5+t2rB5dsHH/haEwWx2wFZnicrXuHt5VALVBb3L7bAnr7ZwrlNpkACKYb9fyTEPzBegu4Vr+qqhyMwoiegb4lT4eLuR5rgeTHrXQuP/cOWF1x1XJp6QTItideyfUvRlRi406w2ceLM+ryiAhXRDBfLOW57ga9HvUer1nRsK+qs3IJQUQgbID8fXthOCzyeDqlzujHTJoagTLzfq8BH7ag2D0y3G5WCCDJt4OzVcqE0AI680SGTQsgkNx1lnAInjR6KfVaLZdVpUBTHMzDXzqE7x5Rqi6A5eOwFYewfyMBoY3PYIz9PpD+Z31gtX6z38JiAJWa3l/xiY0Ijjb+IcjQrFjpf73J4KY1bqbyTd03/1gAKzvjwhbVuovf6S2S1ip5erNO6ExQanNqCu/2M9Zpbs+tVuUs0q7vXzVYEKlwbhzLZ/MDqzS9pZaTWjchq4VHIixGcknC1apGFCLZazSQr5CzaMB6H0eCPes0HI2wD6kxkLPGICnE8KKFbqT7c0g1RNBt09KgfVJ9VL00NoMHFZo92IDFikH42MHd0p3orZmELI6y7XeBsDqzuZKdyLZoRZy1U7U51z3qTIw+QcrVEjZxyj4kIN8TqdHFYLeb6zOXEppUdt4rNBa/mo4ompBxAqtpLwaYRSovR+6pcqBr/aALIc9nApKK+TPriYEDRsGWynlAKOgrLn8ia7RCqniYSD7eJe0pI38yXBMWoCrehhcjfEdomAh0vlvEmxWaCmPhtgnyzG3DkGg9proqIOXSVU8LJiQNuCzQrt2TfKQFVrgivRSXo7fy6MutcOUVdrK7133SB9wWKVFm4Z5XGEFE4LGVrCUJ9dYiD74Jl2XdAKblVrJkw5uiN6tMDgKgJW6kydXPZyoys8C/cMUWK1Za4ZBykptL+aCCBsRP7RmGOTVVTAi0H86Vn/t3cE9afnXiK4Iml3BvNR/SBwL+GDuhggyVmwvH/Xx0L3EJbOZQQoxK3YvHw3xAlbpn7e8Ib1AsGJ3LTnhsWor+YVFegGrNpdPBjhPvc+dqQogYeVmrTgfu6zczFAF4LNyRSveAvBYuZWZCsDOWbltK1ailJXbmakAMlbvrhXPfgSrVxipAEJW79CKFyNzVm9n4l8ceFyFVrwTxlW4x1Mz8/8XFsV3HUP8cME7LdfaT1QguBKF/GyMxwXvdND99QEZV1zBBBWUe7O0R9Dw/5C8bcHBIOGKrHA81mmaV17BEPcK5TIYEDQ8At7IL1BBCasL+FE9RMAH+cUIFZRwr+enMyDJWUcFfVRQxmJ2TaDndkhDBR1UUMpu36dqgS1YUwVdVFDS7wi0bEMaKhiigrL+5VBlIBJctZ38ChWU50dUCbA91kB+1UMF5eWeTVBBAznrrcBCBR+RxxFBIxvgOSpQx5+SMhD5OWtykF/1UcGHBa5NKoAr+ER7BR1UoEDuO/RBMI1zVg0V6BXGUyoNoixgjVABQkACP1UwQAVGQ4BpdQngd5B7bEjuJwRncuKQTdmggkrl6du3RmAnfs4GbVFB5YJsSvCiKEtZP1SgX+gnNoH5PQgVGCYwEn4ZAjmbhwq0jwScEp7YifkhgArMCWKHWs7xBNdKgQoMEN6UWmqqfg1SWsEtfiuXRnmaTVFA/Sro4Bf7aS/Bc1CAeajAOOE5Ns4B+qGCugl8N6KLFLlxwPWAChogv7ShYDue7iVIQQV9VGBc6GcOXQAn8wNuDvmNhQrqITimYCMA9VBB04Spl0TUKJHjpSE3CypoABE3YizYThaLnJsKFTRAfmoholqKGv75RwUNI1LPdag2nMRLBV8G+c0IFTQmhsjkt7+r7+OvvwJCBQ0SitTLHIe0cZzMS0XIzYcKLjMHz3Ucu5pjr+N6mj/8+i1RwQURQsTeaUI40Uc2ntO3vhcLIbglDqjgcokT33uSOM9KvCe+OOF2+j87d43QABRAQRCXDpcWOxpOg1vsnzxd3KrYm7nDtqsCUAF0VLCjAuIr2FABmVQAKgAVgAqIoIKrQigVtJURQAXwFl8B/LQrOFMB8RWsq4BMKgAVgApABaACUAGoAFQAKgAVgApABaACUAF0VLAfXwEqWA2oAFQAKgAVgApABaACiK3gpkB6BYdlOFABqABUACoAFYAKQAWgAlABqABUACoAFYAKQAWgAlABqABUACoAFYAKQAWgAlAB1FXQhgp24ytABesBFYAKQAWxUMF1SYcKLstwoAJQAagAVAAqABWACkAFoAJQAagAVAAqABWACkAFcKcCUAGoANoVnMVXgAo2AioAFYAKQAWgAlABqABUACoAFYAKQAWgAlABqABUACoAFYAKQAWxUMF5ARWACkAFoAKYqIKd1ApQQVtoBaACUAH8x1cA73EVgApABaACUAGoAFQAKgAVgApABaACUAGoAFQAKgAVgApABaACUAGoAPyIQAWgAlABqABUACoAFYAKQAWz93LfZO9OcCVXrTCOZ56TLWRaF4QTkQ5SjGI/BTiKIxSdjb8MPd6xC8Mx95W//wKqbkn9a2ObIRSZnDn7b4ACKIiBebOWHpet3ZhTiHJCJazsrX3yFzCHCAVQoJgJvGX6es56TlFN4b5YejXr1wgFUDA+k5ZMbeXx/xjjujm6rW3Ql0d7e8sdK4ACs290MMtBBpV8pabqkqS7QLdn71YBFLQTUJAQvaMDuSVCART0VtjRiGyR45m10uHyDgVQ0FPxNKrQ8Ud0QnRsoAAK5hsgCsp/hIIDKIACwzSyoGtAwQEUQEGqNF2BWWhcboWCpqDAbETTFeyOhpYDFEDB7YVK0xUUS8NbDBRAwY2tRNMVMGlUIxRAwU15mq6gWFKKoQAKvp7JNF1BcqSWNVAABf0I1BUwaVYjFECBPoI+BWYj3VyCAiiYgYCC+p/Q0A4FLwcFlmYriJVoIgMogAJPsxVERzSRARRAwU56BX0E/QygAAqim60gOqKZDKAACjJNVlAcnViCgidBwUqTFZhMZ+YiFDwKCoybrSDTuVUDBQ+DAk+TFXg6OwsFD4KCQpMVrHR+DAVfBgV+soJIMwpQ8DkoMJP/vZlKM6oGCj4FBTxZwUZz8lDwKSiocxUkmlWAAig4bVQeVJ/S9o+JoAAKFjqas+/rUuBpXgwFUNAxIHJ+j/I5ExL7fERBoIm5AgVQcPRlgd3l2cK6uUYFmWbmoQAKjk2prkleKa65QcFOcytQ8N+gYBm/kYPZ7Y0KjKO5eSiAggMLLbPcUuF6iwKmjqzl/7XZzosBFECBo6ackRsL24sK+i8F2xpfHoW15AUKoMAo7u9WFve6AqZD1fUpxejpWAUKoCBQW6XNGDsiCkMvBW4furPjAgWNQUEVkWYHYeSE6sWMnaDtDBRcXsFKTVlpznAc977OpeEr+HcouLwC7lTQUepYLzyQQYaCtqDAybi2DgQjGRQogIK2ysSpGy6qzJBdoAAK2uKJi3uC0owQKICCtpyZNpeVtQZaEQqgoC0/a3GPVdtcaYECKGhsnTSLr6httJeh4OIKdmrOTxkQseJYq0AB3h23luP5T4icUZS9Q8G1FUSNI7QVhi2seZ3xUHBtBUKHcmzOfWVmNId5FQourqDSFAfUltfdg7tAwbUVbEQTHARqK+juvJqg4NoKmDry5ZxvrcoT9RgKrq0gUFc2nXEFWpTXkVoouLYCcdRX5aJ+N5KUlTkouLiCjbrzQXm1s/qDWHNfCn4NBTNOOra75jDMqr8GCfel4EdQMOdov7obtZtjVh/n7VBwbQXiaUyOjdJXJvXNxhgKLq4gEp3twKovcGNqykPBxRWIpWG5XWO8on+3Y6Hg6goCDaym4fMnsvpvggIoEEsjs2XwtGp7ws6TUHB5BYHGxmbo9y1yICiAgsnnftcwUgGfMFcWCqDAOBrcYtReF+g8hrq8AiiQQKPLcZiCcIKCAAVQIAsNb4cChaBAs0zD8zMVMBRAQXOm0vCykWfboKAjKFAsOgUGRWu0AgVQ8J1h4CIUKAQFd8AAClSCgjfLoBooUAgK9CpZ/xZZXwEU/AwKejIbDc9PUbBcQAFW32vFNLx1hgJ7gXlEUKBWrDS6qDCPCAqgQDOz0OAyFCgEBbqFqjsm4je3vsBBARQ8iR2NzJnTjxrv/QoogAIxXvE5UVDYqxfrjqFAoTLUQelZzSDtJWqKoQAK9B0sPYeaRWmOoQAKBlXYqdwZUFu7/iIbKICCV9qzwsqzqv6QqFFvhAIoeLW4OOpv6/ifOqvvOilQAAVfK23UnelY5WyUzy/IUAAFN1S4DhwSrdo3Bo1qPRRAwW0lSz35jkelm/L+jCsUQMEpj05rz1njRvd8ngAFUNDgYBlzY5B1h0SZ2hIogIJzrgeh4/Y4qz4hslAABSfNOOWeIwWD5ubDDAVQ0Jrx3QoKkd680kKNRSiAgvZWOpDt2hAy6F0KnEABFBxo71Ww6F0MAjXm70TBP6Dg5HyngkCt7Wr7DicogIKzNvd1PdPdiJzR2kTDXF4BFPBiThoTdV5MrNJ5JF6gAAooR2nPdCoI1NyiczZVggIoYCJiI83ZPgVSSeHWwOSDMzugAAqoBmmr/ykPU3v7eATEUPA+KCDairTFnQoKHWgdjoAKFHwMCojYnKpANjrQZuTFguuc8A0FUECuycHW++8tjD1Q3HDfHD8ogIJ2B7V7AF7pUDbIM+2Veqd1QAEUvM8tRV5s8MvfnQ5mdzNqPWiAgodBwft80HlQGjovJw+ynIL8v7AvmY5mBQqeCwqI6loUDvtof/+sXxilIIfmoOBtK3g/6BiMIOsfuD94UkYg1aDgbSt4X16jPF+0NGb+Q6C5FSh4JSh4n9s4yKNM2uhIqfXuQj+WF4MCKHhQtQvv4X28WDqY6VwcqXwUMxRAgX6b/re3FgQKTg0K9saXb/p5gQLFoKBhpVicPx6CgnOCAq/w/QrjISiAgjnPJDPNiAUKzg0KNnm54ua/L4MC/aAgyiul6TcFUKAfFHj9P6EpFwUKzg0KXGna40u/JFBwclCwNu0np98uUHByUJBFYQcVVZRQAAWq46H5DLxAwdlBwS7ylhhUgYKzg4JFZD4DXAtmBgVe5C0zgAL9oCAbhZOiFBhAARSoImiI5zCAAihQR9BQchMYQIFiUOCNtFbyBAZQoBYUsBxpoVPaDBSoBwUuaZ4q3l82d6zgN1DwJhTYIkczPIHBHSj45rOC739vflDgVump2HMY3JeCd1DwphT4Ip2legqDe1LwJyh4SwpskAHt9QwGd6Tgz1BwPLPWWQbmO8jmfhT8BQq6ioujQfkoA0tWnUG8GwX/goLekq/UXV6NDK4sjlRz8U4U/PPdJRT8TnSLnPsIFCWgmzKD+1Dwt2so+KOoZ9JySILb9qJ7pXITGCgrULwUvPspFHQWeGuhkP0eRb+4bu5kBiaopnNX8L7vQcGIws6bdfRqduN+AC2V9ApQZ5c17IMY6KcwHoICpUoIKzPbL+P/FkKUWZWQHvxJnnkNQd53TQZ//ftDBD+DguvWwSDJd7h/f/PuYT+Cgou3qu7U9Z/27sMpdWjb4/gKiSRAaOc6yEWUq7f6eu+9937MKfs9Z/SyGOWOvkFegYER/ctPa3uUQIIhyd779/kLbjnf2WVtYg4txvxYGRWY7qcmZXB2O+OnWqjAEMhgcTsc8VI+KtAdMlicT4bjgENVSV+oABlMzyfjEa9jowI9IYPpRX/MkXguKngGZPDf+RwHnE/CA0j6bIwKkMFP81dAf8axlAkVgEYZLOQCEAEqMC6Ds9sb3kCbUAHokcG0P+NNOBahAtAhg2l/xBvpqNsAKkAGCSRQLZdcShAqQAb/mZ9XQes5HbtZo4ShAmTwv1lkcH7D8VQdu2S5tAYqgJ/910Z+lvoy0A84BqddskgPqADiLwOVdsknvaACGNyOOBrPsS3SDiqAs0nAkTgtnwAVaOhsGHEXZBGgAoMb6JRqBKjA3Aa8ctMlMK8CNCAlQGByBWigUyLQtwIYTHiNSssl0LgCuA3W7YR8Ap0rgMWIV6po/jgUFcDZDa+EZUD7CmD1oNizawR6VwCLGa9Q1X4rhApg0F/dAIHRFeBU7DQpCviFB9B0IahaFA185wEUXggM3wuhAuhzKM+EBlABTGfhDdgugf4VwEXAYco1Av0rgMFNat9T3C18sYsKQIndkFdK5B/+yc7OYbG4J57aKxb3d3ZOCnVUADndDZVdeo564eCouCeiOS7u9AqoALLR38aEoNvbKTZEfHuHO2mvC6gABrPE//5eQQpgI3v7B11UAKmZjni5ir9ZAUfHIhGNw94uKoA0nAcJLgS7B0WRqL2jE1QA23bLy1V9iqt7tCeSIy8JdVQAWzTk5douxXOy3xDbc9hDBSnDqMxr5mIVkDX2C6ggRbgcqtQohvrBnkjF3s4uKkgJImhTDCeHIkWHJ6ggSTANwndDeVsG5AWhjgog+Qg23Q3tSgfiNO3vogJIMoLNnw0VDkVmDguoALYWQStyA0WRqWIBFcBWIvCa8RtAB6hAqwiqfvwG0AEq0CqCiqtGA5JiFxVAkhF03Gj3QiIc7otQgdoRlCmC+o7Im0b8+QEqgLNg42fUvYbIob0eKkgCnk2UaL1uUeRUcZfy5kcPoGEE9R2RY7nbFj1Ajo03jKCwJ3Jtr4AK4Bk/qvEsWqd+JHLvqI4KooDJsgj85BcCLAcPkFcX8SOQFwIsB+pXANONIugeC2Ucd1EBxB8UWLTGgVDKASqAuHekJVqtfigUc1hHBRDqZoMIuntCOXtdVAAxrodK8V9MYFekbgVwvsHboSOhqP06KoBoJ+MyrVQvCmUd11EBRDkZl9W/IA3X6KICeGQY+5dl3YZQWqNHqABkF7Ej6AnlHaACWP3jMs/XNALJPiqAb2b8hKXn5VDIVREqgH7cQcG+UJ98VYQKYMFPlLWPQM4AFcAg4McqpkQQlgEqwPMhz9U9Asmv1FEBnPMTvv4RSP6wiwqewMuJlgkRSP6ojgrwyYlHykZEIPvjDDL4yUNuwG28mfGR0NKfpJ/Bdx/yAgZBrJlxT2jqT38ZFXyD+6GWORHIfv1rBqgA90MdbV+RrvEHPiow02AUPikwIgLZb/qowEj9OG/o6sdCb7/lowIDTWP9Tfui0N1v+6gA76m5Yt4dqWz+uz4qwJdXfAOvh2TzP/NRgen7IdvIk7HspeebXQE+OlEx9GQsu/N8VGCQYZz90L4wxb3nowKDI7DNPRTIZp6PCoyNoGrwoUD2KvBcVGBoBGxRqGNhktdccVGB/s7GHGdetiPM8pYrqEB7twHH+aVxV5hmxmVUoLXBxYiXKGE/9M1LZhsVaOvs4oaXcrAfkp0yl1CBNgaLj84n792MOYxXI+yHZNfs+UpXANPFxWQyHo85FPZDa7wKeNv3pb/4sBWwOJ8MxwHHVqZQB8JMp8wObdX3HyBhZ+eTmxHHtv79UEMY6pq5rU4FsJjcBPwMFRfvh5beE3FThQpgcN6fsSTpCArCXJfMXi3/FWANmPHzdVwKVxQGGzFXUEG+Z1/DgBPgtWiFnjDZFTO381sBErjhZJRdWmVPGO0NM1uoQO8EqnaNVjoQZnslva/KUQVwPuQkeE65FJoAbkmlAzJ38lUBnE1GG/6bdxz7vab1CUWzI0w3D5i5maMKYHET+x9/x25ZFsWCpUB2J++JUEEe30OHqzp2yaJn2hECRszcyUUFMJgEHFGl3LJI9tylAIsBN7OvAM6ijgYc23JJ8vylAGbMXHUzrwANRC2AkoNZgTw643bGFWAvxOtV201KkjQ2hmt+z893BTgPVFo+hcNSkMhi4GRWAVyM1idQo60oCJCuibiUTQUwHcd/AZGYogD5mmgLQ4PvPMA6gz6v5JV9CoelIOnFwE6/AjgPeJVKyaVwWAqSXwy4ln0F+IKirGyRDEtBCq+JuJxxBfiCosyTTgOpLAVwKS0G6VQAg/HKE7FLkjSWAnjFHzj5qAAngmqJkrd2VgD3/IGVUgUw6GfdAH5iFjI5YyedCmA64zBeonuh+I9JcVnKVsYVYDdku5SSQwGPnfIHTgoVQJ/DdGqUlhMBT8z5IwsVZHc3VLVIlv5+CN7wB+XMKsCRwCZZFqMCeM0f1bb6mg6mAS/n1ChFRwKWCkIWgwQrgIuNvqCI39akPDJgN/0KEIFTy0cE8JI/srdWAfS3uhAUCvWEIsDIoEqJ+d6DDIa8VMWnzXULBzuHxWPxVXG/t7v5zBje8kelVP+6HyIou7SRbm+nuCeWOu7VKUz9UMD6LZGTYgWIwCtRfLu9o2Ox2v4JLdVriJUgSPiy9CcPsCaCih+/gP09EUVj/+mK0NsTEO2WqE1JeVgNEXRciqUrrwERHB/1ClI+DREVBmceJeX3HlZBBG2K42TTf8XF96LWA3P+pJnKEwrMCUqxVoE9kQq45o86lJBfeAiFCDyfoqr3jkVa4JQ/cTE2S9KCl6hGjmAX+/ks7kq5hLHZth/QVVyKplAUkMldaQcDg+QMRs+IoIcG0vcm4S3RwwPMYkSQh+t9OE14S/QjRDAMjwB7oXwfDDq4JErIxaYR7KKBzHCyW6JfNP5kvGEE9SMBmblOdnD2XZyM10eAN295c8mflHE8TsJNSAQqbIbwlIg9vKFIwC0/UV0fwUFDQKZe8Wc+psfbGJd5vjoLAeZm3MLBYBuTAl+lEwGOxw4eVz/XJP4r0vq+gBwdjxkTg+QvSW1arXssIA/u+DMLD+qS3g91FNkNwVXCX818gf1Q1DvSIwF5wUkcDLAlOgu9HlLgCykQJDExwJZozI81V0dwLCA/rhOYGGBLdB7zl/bdPQE5cs8Jv67+Id4PvVdZHUFDQC6vStvJ/eAMR2OvhghU8jrp4zH92LyjccCPtBCBmlelTAn5Rfy+rIMI1PKKEz4e04vfM31q7LmIQDHy1R4eliZyS9pEBMpWYOPb1cl8hMtBBMqZPe94jMvSccj9kIrDMozNKoTFIImloIUIFK6AaQM4GYxjzMv2BeR8eMw1IlwTPXspsCjUjoC8D4/ZosT8orGfnShTqBORf6igRXHhW41n0Y/Guw2Rf6jAprjwmmgY/UeWx0IBqKBMCfq5BxMMgshT4yOhAlTgUIJe/NjE73CV1DwUwNXmFWBPNGIZVylMvSGUgAqY4sGe6DzyUnAojIQKXvzItGvSKvZDqOCxH/yeYdekJQ32Q6jAomR9z6yzcRUvJ1CBeUeDUcSloCAMhgroFwz6jZmn7rwMXm9YAU7I/Yhj456AvLvkzR4SYXgWsIxdHI21qMAmGS6KYg0LynhPjQrMy2DIMvbNWwpQATIIWOaYtxSgAmQwZRmXVF4K4M1GFSCDPss8pZcCuE60gpAM/kr3kVkbSwEqWOcnf635GyJf6aUARmlUQC/+Rus3RBUKsSdUAJxKBUS/pPOj6hbGxqggkr/V+J60RssVhQrgZWoV0N8NHrSxiLQh2hVKgKuwO+/kuX8/1fRvOLXU/u4E3PE3Fm2XW7l90MQ40oaoIZQAlylUIGVwo8muiGUVxX9tDPcpVCBnEJzr93yipfgPLeE6jQrkDLg/0G1aUKOl6kIREPA3lALX4dFCr2lBVfENEcxZQqkoMw8HOj0iaiu+IYKr9Csgmzm4eFDZgGVNxW+I4JS/cSglJWYeT7WZman+/RV4m0UF5HvMKp+SJyxx8JxUpyuiMqXGdZg5uNXicGzr9BUiXBHZlCKb3xspOjyYscRS/J4UXrGkRWmyPH5vvFB+cqz6PSm8ZolFqXId/uDmTO3JMY4FWh2OuUYpa3n8wfBM5e9x2Tr9tACHY6bU1RxmVu+6aIJpgVZCXkamvhwEk4GqX6VzFf+BDbxkSYeyUOuwch2M8YhI18kx25SNZlW1DgL+pqP64RjuQza46XJt/iRQ5JzMElv1P2oJo/APS6W/LVLmvmjKEkvxyTHMWUZZspyvHSyUekvn0nJCRXhW7VC2SlX+bHyuzg/NPNW/wQKXLClT1myPPxtdDBQZFzh4Vq3V4bhEmXO/dRD0z5T4Zntbq4tSTI59yoFamb+6WSgwLmipflEKM5aQJOMOpI1R3iuwUIHqQg7HOeogGE7z/dP7murfZoSQ6U+uOuBZ7hYElhBelOq0I2oS5bWDYLjIawUVVKC8NyHTn9x1wKPJWS4rcFCB8u7WPI3M/t5UMr4Y5O8BRRsVKG8+kp9G5o/bqrJseJ63BxQ2KtDpCYVN+VSqsCwYnueqgpIGf9UPrgL53juXrA7LeNSf5qcCi0IIhcD8ciRPjnOp1vYehZDwioAK4OXp/fWMPtktFApdyh1X2hhJW6PsKyB9d0TQKB7uFOqUJ1aZH7u5GGT9pJRwOtbd8dFJLm+MJLPbKSqALWvsd/O6IEiHhEFWFVRQgSH2ejk9IUjGk2kmFTioAB1ko9au8lPBzcUZKjAHOqBm2eMlRsOLs5xUsCP0A8VdypdShzmTEuQK2qjAMDv5GyJ0OKyE22kqFdiowDTFOqkTAgfjyWKQXQUFoSdodIkUCEEyS3xRQAXQozxynx6WZeP+xTT1CuoCcDhImyVfn4ankFoFJPQF+5RbtZbDq82GSZwVxnIFGBgggxzujaocQjo2XywenmEWqYJDAdgUZbgkdDxea/S+hc3WhQHLFeCqFEfkvLJsh6MIxsPJIuZ54TxaBSdCa9AlmbolSAtDP3oM42gV7AqtwT/USaZ4CXIMw8n5YhD3bx2b+Zde4R9rpA6/1alyLLNxP7SGaRC1gqLQG/xTk5RSa7Ydjm00vplMFnIOZ0OWsUU4HhtsZpNyrFa5whsZjceT98YjfsQiHI8N9pLLJNM6BUmMCupCd/CWHZcUI6fgJFiBqX/rFeYBV1xSmd+0nSo/j0srHAndwSlLGajLKrUdjzfkEeFgYLYRc5k0YZVsp8KxdWgloT24YykDLfiW3Y61SSqRBA/qjBTI/w5MjKFKq/WEGfCX833SVc0q2eWVNfgkMfOuFF7xe1WXtCXXUOHHql8iwJYIfxywTaawrNbXHKodaS+ILRH+OKBF5sKWCOYs7YkMhi0RtkRsk+kwOMOWyKsRmP2HnXBLxFwmMPdHBjDij2oExv76GO7XLAawL3QHp2teGENX6A6u1v0KHYoCNDdf964MCgJ0F/AnTQIsBqa65k9wPsZigAo8AiwGpnrL2BJhMcAvbT5rE5j+pg4VVMh0GCCjAsbgDF8mQgUWQZh6QxgBFWB8jN8ZoIIOmQ63pajAIQi32xCgrXv+ilaAAwHaumZUgD0RKsAlEfZEpmNUgHsi081RAWZnxrtCBTEcC9DRKSrA0QAXpagAb6yNN0IFsfQEaOcVowJ8nsh0d6gAv7gx3htUEFf9WIBeApaQ4ZABNkSoABlgQ4QfHmNsgBsi7lBE0EUG+rhkmU2ATZFx5gHLmhQZ1H9FgIZLAdcoOqj/swD9loIqQRz1fxGg3VJQJojnX4Xq4FXAzzsWwL8JHWBWIHEJ4vr3uVAZvGbGtODZ/uNKqA5HY0mJYAPOpVAbPsAi8Qg24VauXwmV4X5I0ibYiOsEr4XKcCjAyCwBZX4zF8qBlwFzgsMCZBDcCYUhAiwFCWgzX78UikMEZXoOKDHz27lQGSLwavQsYHnMwalQFyJgm54J/Aozj+6ECuBuSQRVejZwO4wOFPGWl7AIEtBidKCCVzNm7Ie2xq9+6uB0LiC3TgNewqFEYVfEHNy/FJBLr655Gc8lSEzT409md3MBeTN/y0t5PkHSy8En968F5Mn8MuDlSgTJalb5i+AeK0JuvHobMCJIjWuz5Pr0pYDM3b1hRgSpqjksC96cXgnIzPz1fcCIIH2Ww49cv0UKWbi6vOZVPIu2BkpVfiq4vr+8u0INaZhfvb68n/EaFZ/ShQ4ks+vP3l4uc7Vdd5dZu7t6ttPLJ66/mHE0HZdSh30R5IlXohSAX2bIK6dG6QC3VWXIoWqTUgRW2WPIF8+mtEETIeSrAZeygRCqDHlQKRFkx291PIZMVds+ZQ8llCsM2ajYSCA/rJLtoIVUeY7ddAlyp2Y1bbvtfMBbABXng45tNy0EoGgiWasp91/KpyS8A2FzSuYp7WU4AAAAAElFTkSuQmCC;" parent="1" vertex="1">
                    <mxGeometry x="1170" y="1516" width="52" height="55.61" as="geometry"/>
                </mxCell>
                <mxCell id="P_I64xx7jwWxLBhjMPru-15" style="edgeStyle=orthogonalEdgeStyle;rounded=0;orthogonalLoop=1;jettySize=auto;html=1;exitX=1;exitY=0.5;exitDx=0;exitDy=0;entryX=0;entryY=0.5;entryDx=0;entryDy=0;dashed=1;startArrow=none;startFill=0;endArrow=classic;endFill=1;" parent="1" source="P_I64xx7jwWxLBhjMPru-16" target="P_I64xx7jwWxLBhjMPru-5" edge="1">
                    <mxGeometry relative="1" as="geometry"/>
                </mxCell>
                <mxCell id="P_I64xx7jwWxLBhjMPru-16" value="ApiGateway&lt;br&gt;Domain" style="rounded=0;whiteSpace=wrap;html=1;fillColor=none;" parent="1" vertex="1">
                    <mxGeometry x="260" y="1766.7399999999998" width="120" height="60" as="geometry"/>
                </mxCell>
                <mxCell id="P_I64xx7jwWxLBhjMPru-17" value="ValidationReports&lt;br&gt;Domain" style="rounded=0;whiteSpace=wrap;html=1;fillColor=none;" parent="1" vertex="1">
                    <mxGeometry x="675" y="1456" width="120" height="60" as="geometry"/>
                </mxCell>
                <mxCell id="P_I64xx7jwWxLBhjMPru-21" value="PostOffice&lt;br&gt;Domain" style="rounded=0;whiteSpace=wrap;html=1;fillColor=none;" parent="1" vertex="1">
                    <mxGeometry x="1220" y="1766.74" width="120" height="60" as="geometry"/>
                </mxCell>
                <mxCell id="P_I64xx7jwWxLBhjMPru-22" value="SharedResources&lt;br&gt;Domain" style="rounded=0;whiteSpace=wrap;html=1;fillColor=none;" parent="1" vertex="1">
                    <mxGeometry x="470" y="1918.7399999999998" width="120" height="60" as="geometry"/>
                </mxCell>
                <mxCell id="P_I64xx7jwWxLBhjMPru-23" value="Integration event queue&lt;br&gt;(ServiceBus Queue)" style="verticalLabelPosition=bottom;html=1;verticalAlign=top;align=center;strokeColor=none;fillColor=#00BEF2;shape=mxgraph.azure.service_bus_queues;pointerEvents=1;" parent="1" vertex="1">
                    <mxGeometry x="997" y="1924" width="42.5" height="50" as="geometry"/>
                </mxCell>
                <mxCell id="2" value="&lt;b&gt;Business Processing&lt;/b&gt;" style="rounded=1;whiteSpace=wrap;html=1;verticalAlign=top;" vertex="1" parent="1">
                    <mxGeometry x="929" y="1635" width="170" height="230" as="geometry"/>
                </mxCell>
                <mxCell id="P_I64xx7jwWxLBhjMPru-20" value="Business Process&#10;(TimerTrigger)" style="shape=image;verticalLabelPosition=bottom;labelBackgroundColor=#ffffff;verticalAlign=top;aspect=fixed;imageAspect=0;image=data:image/svg+xml,PHN2ZyB4bWxucz0iaHR0cDovL3d3dy53My5vcmcvMjAwMC9zdmciIGlkPSJhMmM4ODMwNi1mYTAzLTRlNWItYjE5Mi00MDFmMGI3NzgwOGIiIHdpZHRoPSIxOCIgaGVpZ2h0PSIxOCIgdmlld0JveD0iMCAwIDE4IDE4Ij4mI3hhOyAgPGRlZnM+JiN4YTsgICAgPGxpbmVhckdyYWRpZW50IGlkPSJiNDAzYWNhNy1mMzg3LTQ0MzQtOTZiNC1hZTE1N2VkYzgzNWYiIHgxPSItMTc1Ljk5MyIgeTE9Ii0zNDMuNzIzIiB4Mj0iLTE3NS45OTMiIHkyPSItMzU5LjIzMiIgZ3JhZGllbnRUcmFuc2Zvcm09InRyYW5zbGF0ZSgyMTIuNTczIDM3MC41NDgpIHNjYWxlKDEuMTU2IDEuMDI5KSIgZ3JhZGllbnRVbml0cz0idXNlclNwYWNlT25Vc2UiPiYjeGE7ICAgICAgPHN0b3Agb2Zmc2V0PSIwIiBzdG9wLWNvbG9yPSIjZmVhMTFiIi8+JiN4YTsgICAgICA8c3RvcCBvZmZzZXQ9IjAuMjg0IiBzdG9wLWNvbG9yPSIjZmVhNTFhIi8+JiN4YTsgICAgICA8c3RvcCBvZmZzZXQ9IjAuNTQ3IiBzdG9wLWNvbG9yPSIjZmViMDE4Ii8+JiN4YTsgICAgICA8c3RvcCBvZmZzZXQ9IjAuOCIgc3RvcC1jb2xvcj0iI2ZmYzMxNCIvPiYjeGE7ICAgICAgPHN0b3Agb2Zmc2V0PSIxIiBzdG9wLWNvbG9yPSIjZmZkNzBmIi8+JiN4YTsgICAgPC9saW5lYXJHcmFkaWVudD4mI3hhOyAgPC9kZWZzPiYjeGE7ICA8dGl0bGU+SWNvbi1jb21wdXRlLTI5PC90aXRsZT4mI3hhOyAgPGc+JiN4YTsgICAgPHBhdGggZD0iTTIuMzcsNy40NzVIMy4yYS4yNjcuMjY3LDAsMCwxLC4yNjcuMjY3djYuMTQ4YS41MzMuNTMzLDAsMCwxLS41MzMuNTMzSDIuMWEwLDAsMCwwLDEsMCwwVjcuNzQxYS4yNjcuMjY3LDAsMCwxLC4yNjctLjI2N1oiIHRyYW5zZm9ybT0idHJhbnNsYXRlKDEyLjUwNyAxNi43MDUpIHJvdGF0ZSgxMzQuOTE5KSIgZmlsbD0iIzUwZTZmZiIvPiYjeGE7ICAgIDxwYXRoIGQ9Ik0yLjMyNSwzLjZoLjgzM2EuMjY3LjI2NywwLDAsMSwuMjY3LjI2N3Y2LjU4M2EwLDAsMCwwLDEsMCwwSDIuNTkxYS41MzMuNTMzLDAsMCwxLS41MzMtLjUzM1YzLjg2NUEuMjY3LjI2NywwLDAsMSwyLjMyNSwzLjZaIiB0cmFuc2Zvcm09InRyYW5zbGF0ZSg1Ljc1OSAwLjExNCkgcm90YXRlKDQ0LjkxOSkiIGZpbGw9IiMxNDkwZGYiLz4mI3hhOyAgPC9nPiYjeGE7ICA8Zz4mI3hhOyAgICA8cGF0aCBkPSJNMTQuNTMsNy40NzVoLjgzM2EuNTMzLjUzMywwLDAsMSwuNTMzLjUzM3Y2LjE0OGEuMjY3LjI2NywwLDAsMS0uMjY3LjI2N0gxNC44YS4yNjcuMjY3LDAsMCwxLS4yNjctLjI2N1Y3LjQ3NWEwLDAsMCwwLDEsMCwwWiIgdHJhbnNmb3JtPSJ0cmFuc2xhdGUoMTIuMjIzIC03LjU1NSkgcm90YXRlKDQ1LjA4MSkiIGZpbGw9IiM1MGU2ZmYiLz4mI3hhOyAgICA8cGF0aCBkPSJNMTUuMTA4LDMuNmguODMzYTAsMCwwLDAsMSwwLDB2Ni41ODNhLjI2Ny4yNjcsMCwwLDEtLjI2Ny4yNjdoLS44MzNhLjI2Ny4yNjcsMCwwLDEtLjI2Ny0uMjY3VjQuMTMxYS41MzMuNTMzLDAsMCwxLC41MzMtLjUzM1oiIHRyYW5zZm9ybT0idHJhbnNsYXRlKDMxLjAyMiAxLjIyMikgcm90YXRlKDEzNS4wODEpIiBmaWxsPSIjMTQ5MGRmIi8+JiN4YTsgIDwvZz4mI3hhOyAgPHBhdGggZD0iTTguNDU5LDkuOUg0Ljg3YS4xOTMuMTkzLDAsMCwxLS4yLS4xODEuMTY2LjE2NiwwLDAsMSwuMDE4LS4wNzVMOC45OTEsMS4xM2EuMjA2LjIwNiwwLDAsMSwuMTg2LS4xMDZoNC4yNDVhLjE5My4xOTMsMCwwLDEsLjIuMTgxLjE2NS4xNjUsMCwwLDEtLjAzNS4xTDguNTM0LDcuOTY2aDQuOTI4YS4xOTMuMTkzLDAsMCwxLC4yLjE4MS4xNzYuMTc2LDAsMCwxLS4wNTIuMTIyTDUuNDIxLDE2Ljc4OGMtLjA3Ny4wNDYtLjYyNC41LS4zNTYtLjE4OWgwWiIgZmlsbD0idXJsKCNiNDAzYWNhNy1mMzg3LTQ0MzQtOTZiNC1hZTE1N2VkYzgzNWYpIi8+JiN4YTs8bWV0YWRhdGE+JiN4YTsgICA8cmRmOlJERiB4bWxuczpyZGY9Imh0dHA6Ly93d3cudzMub3JnLzE5OTkvMDIvMjItcmRmLXN5bnRheC1ucyMiPiYjeGE7ICAgICAgPHJkZjpsaT5wdWJsaWM6dHJ1ZTwvcmRmOmxpPiYjeGE7ICAgICAgPHJkZjpsaT5zZGs6TXNQb3J0YWxGeC5CYXNlLkltYWdlcy5Qb2x5Y2hyb21hdGljLkZ1bmN0aW9ucygpPC9yZGY6bGk+JiN4YTsgICAgICA8cmRmOmxpPmNhdGVnb3J5OiBDb21wdXRlLCBJb1Q8L3JkZjpsaT4mI3hhOyAgIDwvcmRmOlJERj4mI3hhOzwvbWV0YWRhdGE+JiN4YTs8L3N2Zz4=;" parent="1" vertex="1">
                    <mxGeometry x="989.5" y="1675" width="50" height="50" as="geometry"/>
                </mxCell>
                <mxCell id="P_I64xx7jwWxLBhjMPru-11" value="Business Process&#10;(ServiceBusTrigger)" style="shape=image;verticalLabelPosition=bottom;labelBackgroundColor=#ffffff;verticalAlign=top;aspect=fixed;imageAspect=0;image=data:image/svg+xml,PHN2ZyB4bWxucz0iaHR0cDovL3d3dy53My5vcmcvMjAwMC9zdmciIGlkPSJhMmM4ODMwNi1mYTAzLTRlNWItYjE5Mi00MDFmMGI3NzgwOGIiIHdpZHRoPSIxOCIgaGVpZ2h0PSIxOCIgdmlld0JveD0iMCAwIDE4IDE4Ij4mI3hhOyAgPGRlZnM+JiN4YTsgICAgPGxpbmVhckdyYWRpZW50IGlkPSJiNDAzYWNhNy1mMzg3LTQ0MzQtOTZiNC1hZTE1N2VkYzgzNWYiIHgxPSItMTc1Ljk5MyIgeTE9Ii0zNDMuNzIzIiB4Mj0iLTE3NS45OTMiIHkyPSItMzU5LjIzMiIgZ3JhZGllbnRUcmFuc2Zvcm09InRyYW5zbGF0ZSgyMTIuNTczIDM3MC41NDgpIHNjYWxlKDEuMTU2IDEuMDI5KSIgZ3JhZGllbnRVbml0cz0idXNlclNwYWNlT25Vc2UiPiYjeGE7ICAgICAgPHN0b3Agb2Zmc2V0PSIwIiBzdG9wLWNvbG9yPSIjZmVhMTFiIi8+JiN4YTsgICAgICA8c3RvcCBvZmZzZXQ9IjAuMjg0IiBzdG9wLWNvbG9yPSIjZmVhNTFhIi8+JiN4YTsgICAgICA8c3RvcCBvZmZzZXQ9IjAuNTQ3IiBzdG9wLWNvbG9yPSIjZmViMDE4Ii8+JiN4YTsgICAgICA8c3RvcCBvZmZzZXQ9IjAuOCIgc3RvcC1jb2xvcj0iI2ZmYzMxNCIvPiYjeGE7ICAgICAgPHN0b3Agb2Zmc2V0PSIxIiBzdG9wLWNvbG9yPSIjZmZkNzBmIi8+JiN4YTsgICAgPC9saW5lYXJHcmFkaWVudD4mI3hhOyAgPC9kZWZzPiYjeGE7ICA8dGl0bGU+SWNvbi1jb21wdXRlLTI5PC90aXRsZT4mI3hhOyAgPGc+JiN4YTsgICAgPHBhdGggZD0iTTIuMzcsNy40NzVIMy4yYS4yNjcuMjY3LDAsMCwxLC4yNjcuMjY3djYuMTQ4YS41MzMuNTMzLDAsMCwxLS41MzMuNTMzSDIuMWEwLDAsMCwwLDEsMCwwVjcuNzQxYS4yNjcuMjY3LDAsMCwxLC4yNjctLjI2N1oiIHRyYW5zZm9ybT0idHJhbnNsYXRlKDEyLjUwNyAxNi43MDUpIHJvdGF0ZSgxMzQuOTE5KSIgZmlsbD0iIzUwZTZmZiIvPiYjeGE7ICAgIDxwYXRoIGQ9Ik0yLjMyNSwzLjZoLjgzM2EuMjY3LjI2NywwLDAsMSwuMjY3LjI2N3Y2LjU4M2EwLDAsMCwwLDEsMCwwSDIuNTkxYS41MzMuNTMzLDAsMCwxLS41MzMtLjUzM1YzLjg2NUEuMjY3LjI2NywwLDAsMSwyLjMyNSwzLjZaIiB0cmFuc2Zvcm09InRyYW5zbGF0ZSg1Ljc1OSAwLjExNCkgcm90YXRlKDQ0LjkxOSkiIGZpbGw9IiMxNDkwZGYiLz4mI3hhOyAgPC9nPiYjeGE7ICA8Zz4mI3hhOyAgICA8cGF0aCBkPSJNMTQuNTMsNy40NzVoLjgzM2EuNTMzLjUzMywwLDAsMSwuNTMzLjUzM3Y2LjE0OGEuMjY3LjI2NywwLDAsMS0uMjY3LjI2N0gxNC44YS4yNjcuMjY3LDAsMCwxLS4yNjctLjI2N1Y3LjQ3NWEwLDAsMCwwLDEsMCwwWiIgdHJhbnNmb3JtPSJ0cmFuc2xhdGUoMTIuMjIzIC03LjU1NSkgcm90YXRlKDQ1LjA4MSkiIGZpbGw9IiM1MGU2ZmYiLz4mI3hhOyAgICA8cGF0aCBkPSJNMTUuMTA4LDMuNmguODMzYTAsMCwwLDAsMSwwLDB2Ni41ODNhLjI2Ny4yNjcsMCwwLDEtLjI2Ny4yNjdoLS44MzNhLjI2Ny4yNjcsMCwwLDEtLjI2Ny0uMjY3VjQuMTMxYS41MzMuNTMzLDAsMCwxLC41MzMtLjUzM1oiIHRyYW5zZm9ybT0idHJhbnNsYXRlKDMxLjAyMiAxLjIyMikgcm90YXRlKDEzNS4wODEpIiBmaWxsPSIjMTQ5MGRmIi8+JiN4YTsgIDwvZz4mI3hhOyAgPHBhdGggZD0iTTguNDU5LDkuOUg0Ljg3YS4xOTMuMTkzLDAsMCwxLS4yLS4xODEuMTY2LjE2NiwwLDAsMSwuMDE4LS4wNzVMOC45OTEsMS4xM2EuMjA2LjIwNiwwLDAsMSwuMTg2LS4xMDZoNC4yNDVhLjE5My4xOTMsMCwwLDEsLjIuMTgxLjE2NS4xNjUsMCwwLDEtLjAzNS4xTDguNTM0LDcuOTY2aDQuOTI4YS4xOTMuMTkzLDAsMCwxLC4yLjE4MS4xNzYuMTc2LDAsMCwxLS4wNTIuMTIyTDUuNDIxLDE2Ljc4OGMtLjA3Ny4wNDYtLjYyNC41LS4zNTYtLjE4OWgwWiIgZmlsbD0idXJsKCNiNDAzYWNhNy1mMzg3LTQ0MzQtOTZiNC1hZTE1N2VkYzgzNWYpIi8+JiN4YTs8bWV0YWRhdGE+JiN4YTsgICA8cmRmOlJERiB4bWxuczpyZGY9Imh0dHA6Ly93d3cudzMub3JnLzE5OTkvMDIvMjItcmRmLXN5bnRheC1ucyMiPiYjeGE7ICAgICAgPHJkZjpsaT5wdWJsaWM6dHJ1ZTwvcmRmOmxpPiYjeGE7ICAgICAgPHJkZjpsaT5zZGs6TXNQb3J0YWxGeC5CYXNlLkltYWdlcy5Qb2x5Y2hyb21hdGljLkZ1bmN0aW9ucygpPC9yZGY6bGk+JiN4YTsgICAgICA8cmRmOmxpPmNhdGVnb3J5OiBDb21wdXRlLCBJb1Q8L3JkZjpsaT4mI3hhOyAgIDwvcmRmOlJERj4mI3hhOzwvbWV0YWRhdGE+JiN4YTs8L3N2Zz4=;" parent="1" vertex="1">
                    <mxGeometry x="989.5" y="1771" width="49" height="50" as="geometry"/>
                </mxCell>
                <mxCell id="P_I64xx7jwWxLBhjMPru-12" style="edgeStyle=orthogonalEdgeStyle;rounded=0;orthogonalLoop=1;jettySize=auto;html=1;exitX=1;exitY=0.5;exitDx=0;exitDy=0;entryX=0;entryY=0.5;entryDx=0;entryDy=0;dashed=1;" parent="1" source="P_I64xx7jwWxLBhjMPru-13" target="P_I64xx7jwWxLBhjMPru-11" edge="1">
                    <mxGeometry relative="1" as="geometry"/>
                </mxCell>
            </root>
        </mxGraphModel>
    </diagram>
</mxfile>